<?xml version="1.0" ?><!DOCTYPE svg  PUBLIC '-//W3C//DTD SVG 1.1//EN'  'http://www.w3.org/Graphics/SVG/1.1/DTD/svg11.dtd'><svg enable-background="new 0 0 2000 2000" id="Layer_1" version="1.1" viewBox="0 0 2000 2000" xml:space="preserve" xmlns="http://www.w3.org/2000/svg" xmlns:xlink="http://www.w3.org/1999/xlink"><g><path d="M964.4,700.8c0.8,2.8,2.1,5.2,3.1,7.9c0.6,1.6,1.2,3.1,1.8,4.6c2.1,5,4.3,9.8,7,14.3c1,1.7,2.1,3.4,3.2,5.1   c2.7,4.2,5.7,8.1,8.9,11.8c1.3,1.5,2.7,2.9,4.1,4.3c3.7,3.7,7.6,7.1,11.8,10.2c1.3,1,2.7,1.9,4.2,2.9c2.4,1.6,4.5,3.5,7.1,4.9   l0.3,0.2l0.2-0.3c0.2-0.2,17.2-20.9,28.7-55.8c10.7-32.2,18.8-83.5-3.1-144.8c-17.3-48.5-31.9-73.1-43.2-73.1   c-9.1,0-12.4,15.7-12.5,16.3c-0.2,0.5-20.2,49.8-26.5,105.8C955.7,648.1,957.3,676.9,964.4,700.8z"/><path d="M897.1,971l-0.5,0.4c-0.8,0.5-76.6,54-116.7,54c-2.8,0-5.5-0.3-7.8-0.8c-0.7-0.2-1.5-0.3-2.2-0.3   c-13.2,0-25.4,27.6-32.5,73.8c-10.6,68.9-5.4,148.5,21.5,157l0.9,0.3l-0.5-0.9c-0.2-0.5-23.9-45.6,11.5-76.1l1-0.9   c18.8-16.2,53.8-46.4,82.5-83.4c35.3-45.4,49.7-86.6,42.8-122.5L897.1,971z"/><path d="M704.7,343.8l0.1,0c0.9,0.1,91.3,6.3,119.1,19.3c2.5,1.2,5.4,2.4,8.4,3.8c31.8,13.9,91.1,39.7,88.6,120.2   c-0.2,0.5-15.4,54.8-16.2,115.8c-0.5,35.8,4,67,13.4,92.5c1.1,3.1,2.7,5.7,3.9,8.6c0.7,1.5,1.4,3,2.1,4.5   c2.6,5.5,5.4,10.7,8.6,15.6c1.1,1.7,2.3,3.4,3.5,5.1c3.2,4.5,6.6,8.7,10.3,12.6c1.4,1.5,3,3,4.5,4.5c4,3.8,8.2,7.3,12.7,10.5   c1.5,1.1,3.1,2.1,4.8,3.1c2.5,1.6,4.7,3.5,7.4,4.9l1.8,1l-1.3-1.6c-0.1-0.2-13.4-16.1-23.5-43c-9.4-24.9-17.9-64.5-5.6-112   c21.2-81.8,40.5-179.8,0.8-309.1c0.3-1.1,2.3-8.2-0.8-14.1c-1.7-3.3-4.8-5.6-9-6.8c-0.7-0.2-1.6-0.5-2.7-0.8   c-12.2-3.6-49.2-14.5-88-14.5c-12,0-22.7,1.4-32.9,3.4c-0.5,0.1-1,0.2-1.5,0.3c-8.2,1.7-15.8,4.1-22.7,7.2c-0.7,0.3-1.4,0.6-2,0.9   c-3.7,1.7-7.3,3.7-10.7,5.8c-0.6,0.4-1.1,0.8-1.6,1.1c-3.3,2.2-6.7,4.2-9.6,6.7c-3.3,0.4-65.8,7.6-79.6,41.8l-0.1,0.3l17.6,12.4   L704.7,343.8z"/><path d="M965,851.4c0.1-0.1,8-11.4,8.5-28.7c0.4-15.9-5.6-40.3-36.7-66.2c-7.2-6-15-10.7-23.1-14.7c-0.5-0.3-1-0.5-1.5-0.7   c-11.4-5.5-23.4-8.9-35.9-10.3c-0.3,0-0.6-0.1-0.9-0.1c-3.8-0.4-7.5-1-11.3-1c-41.8,0-84.5,22.4-114.3,59.9   c-32.3,40.7-143.7,173.4-221.4,173.4c-2.7,0-5.3-0.2-7.8-0.5c-0.3,0-0.6-0.1-0.9-0.1c-2.5-0.3-4.9-0.8-7.2-1.4   c-8.1-2.2-15.7-3.3-22.3-3.3c-10.6,0-18.8,3.2-24.6,8.6c-0.3,0.3-0.5,0.5-0.8,0.8c-3.3,3.4-5.9,7.3-7,12.4   c-4.6,20.9,12,52.3,47.6,68.6c5.3,2.4,10.1,4.7,14.4,6.7c18.4,8.6,29.5,13.8,36.3,13.8c10.2,0,11.1-11,13.3-37.7   c0.2-2.7,0.4-5.5,0.7-8.5c0.3-0.5,0.5-1.3,0.9-2.4c13.8-45.8,101.9-83.2,173.4-106.6l0.1-0.1c0.4-0.3,37.9-32.3,53.9-94.8   c12-46.8,36.3-53,47.1-53.3c-9.9,3.7-30.9,23.3-60.1,112.5c-0.1,0.2-8.8,21.5-30.4,47.7c-20,24.2-55.4,57.7-110.7,79.7l-0.3,0.2   l0.1,0.3c0.2,1.3,19.3,5.2,45.1,5.2c29.4,0,74.9-4.9,125.4-28.2C871.9,956.1,922.6,912,965,851.4z"/><path d="M616,878.2l0.3,0.2l0.2-0.3c0.2-0.3,22.1-33.9,59.8-71.4c34.8-34.6,90.5-79.7,158.4-98.1l0.8-0.2l-0.7-0.5   c-0.1-0.1-11.2-8.6-19.7-25.7c-7.9-15.8-15.2-42.2-5.2-78.8c19.2-70.4-19.2-95-63.8-115.9l-0.9-0.4l0.4,0.9   c0.1,0.2,7.7,20.6-3.1,54.7c-9.9,31.5-37.9,81.3-115.2,140.1c-48.5,36.9-71.9,74.2-69.7,110.9C560.9,845.5,615.4,877.9,616,878.2z"/><path d="M634.4,417.2c45.5,0,84.4,10.7,115.9,31.7c52.2,34.8,72.8,66.5,80.9,87c8.8,22.1,5.1,36.2,5.1,36.3l0,0.1l0,0.1   c0.6,4.6,14.1,112.6,32.5,118l0.4,0.1l0.1-0.4c0.4-1.4,36.6-136.7,7.5-214.5c-6.3-16.9-10.2-30.8-13.3-42   c-11.6-41.7-14.4-51.6-97.5-65.7l-89.7-9.3c-1.7-0.9-32.6-16.7-68.2-16.7c-23.3,0-43.6,6.7-60.3,19.9c-2,1.6-3.7,3.8-5.6,5.6   c-1.4,1.3-2.7,2.6-4.1,4c-3.4,3.6-6.6,7.6-9.7,11.8c-0.9,1.3-1.8,2.6-2.7,4c-3.2,4.9-6.2,10.3-9,16c-0.5,1-0.9,2-1.4,2.9   c-3.1,6.9-5.9,14.3-8.4,22.2c0,0.1-0.1,0.2-0.1,0.3c-1.4,4.5-3,8.8-4.2,13.7l-0.2,0.8l0.7-0.3C503.9,442.6,564.9,417.2,634.4,417.2   z"/><path d="M579.4,905.9l0.7-1l-1.1,0.4c-1.9,0.7-4.3,1.1-7.1,1.1c-29.4,0-96.4-40.6-97-41c0,0-44.3-34.1-74.3-57.2   c-29.5-22.7-38.2-177.4-38.2-178.9l-0.1-1l-0.7,0.7c-22.6,25.9-38.3,54.2-46.6,84.1c-6.6,24-8.6,49-5.8,74.5   c4.7,43.3,21.9,73.2,22,73.5l86.7,61.2l0.1,0.1c29.7,8.1,56.7,12.2,80.4,12.2C560.3,934.6,579.2,906.1,579.4,905.9z"/><path d="M412.9,760.9c32,55.4,77,89.2,77.5,89.6l0.1,0.1l71.4-1.8l0.9,0l-0.6-0.7c-0.4-0.5-43.2-48.5-70.8-110   c-25.5-56.7-42.9-136.9,18.6-196.8c41.5-40.4,83.1-60.9,123.7-60.9c48.4,0,78.1,30,78.4,30.3l0.4,0.4l0.2-0.6   c9.9-24.7-14.2-51.5-64.6-71.9c-6.4-2.6-15-3.9-25.5-3.9c-60.3,0-168.5,43.4-169.6,43.9l-0.1,0.1l-40.5,57.4   c-23.5,41.1-34,83.2-31.2,125.2C383.5,694.8,394.2,728.3,412.9,760.9z"/><path d="M585.3,518.4c-15.1,0-30.2,6.3-44.8,18.8c-20,17.1-38.5,45.3-55.1,84l-0.1,0.2l0.1,0.2c0.5,1.1,2.1,5.8,4.5,12.9   c19.7,57.4,43.5,123.2,52.9,123.2c0.1,0,0.2,0,0.4,0l0.2,0l0.1-0.2c0.6-1.1,61-109.5,74.2-121.5l0.7-0.6l-0.9-0.1   c-0.6-0.1-57.5-7.5-73.8-35.2c-5.4-9.2-5.7-19.6-1.1-31.1c16-39.5,42-45.4,56.1-45.4c4.5,0,7.4,0.7,7.4,0.7l2.5,0.6l-2.2-1.3   C606.4,523.3,598.2,518.4,585.3,518.4z"/><path d="M603.3,600.4c0.6,11.2,3.6,16.8,9,16.8c15.1,0,43.5-44.8,44.7-46.7l0.3-0.4l-0.5-0.2c-0.1-0.1-11.1-3.9-23-3.9   c-10.2,0-18,2.8-23.2,8.2C605.2,580,602.7,588.8,603.3,600.4z"/><path d="M649,625.5l0.1,0.4c18-6.8,29.7-22.2,36.4-34c8.2-14.5,13.5-31.6,14.5-46.9c1-15.5-2.6-26.7-9.8-30.5   c-22.3-11.9-68.6,17.2-70.6,18.5l-1.5,1l1.8-0.2c24.5-2.9,40.5,1.4,47.6,12.7c15.5,24.7-16.3,75.2-16.7,75.7l0.3,0.2l0,0l-1.8,2.5   c-0.2,0.1-0.4,0.2-0.6,0.3L649,625.5L649,625.5L649,625.5z"/><path d="M1522.2,862.5L1522.2,862.5c0.2-0.9,17.6-62.4-15-106c-21.8-29.1-60.4-43.8-114.8-43.8c-7.8,0-16.1,0.3-24.6,0.9l-1.3,0.1   l1.1,0.7c0.5,0.3,51,30.8,59.3,46.6c4.3,8.2,16.3,12.4,30.3,17.3c13.5,4.7,28.8,10.1,38.9,20.2c20.2,20.3,30.4,45.9,25.4,63.8   L1522.2,862.5z"/><path d="M1585.5,650.1c13.9-28.6,15.9-57.5,15.9-57.8l0.1-1.7l-0.9,1.5c-52.7,93.3-156.4,98-176.6,98c-1.4,0-2.1,0-2.1,0l-2.2-0.1   l2.1,0.9c27.3,11.3,52.2,17.1,74,17.1c22.5,0,42-6.1,58.1-18.1C1566.6,680.2,1577.3,666.9,1585.5,650.1z"/><path d="M1525.6,541.5l-0.3,2.1l1.1-1.9c0.3-0.5,28.4-48.6,66.7-92.1c15.7-17.9,18.5-43.1,7.5-67.4c-12.3-27.2-37.7-44.8-64.7-44.8   c-4.1,0-8.3,0.4-12.5,1.2l-0.2,0l-0.1,0.2c-0.2,0.4-14.1,41.5,1.8,73.5C1540.7,444.1,1525.8,540.6,1525.6,541.5z"/><path d="M1501.4,476.7l-0.3,2.3l1.1-2c0.2-0.4,20.6-40.7,3.5-81c-17-40-1.4-76.5-1.2-76.9l0.2-0.4l-0.5-0.1   c-1.1-0.3-26.6-6.7-35.4-6.7c-1.7,0-2.7,0.2-3.1,0.8c-0.2,0.2-0.2,0.5-0.2,0.8c1.1,4.7,1,49.1-5.1,63.6   c-2.5,5.9,3.9,14.6,12.8,26.4C1486.7,421.6,1505.3,446.5,1501.4,476.7z"/><path d="M1353.4,329.7c36.3,19,67.6,35.3,62.2,92.9c-2.4,25.6-0.6,51.1,1,75.7c4.6,67.7,9,131.7-70,188.1l-0.9,0.6l1.1,0.1   c0.1,0,6.1,0.5,15.5,0.5c37.8,0,127-8.5,139.2-87.6c7.9-51.6-6.5-107.7-20-145.7c-14.1-39.8-30.2-68.5-31.4-70.7   c0.7-4.4,10.9-69.9,7.6-81c-3.7-12.5-27.2-49.1-70.1-56.1c-6-1-13.5-2.4-21.3-4c-21.1-4.1-47.4-9.3-67-9.3   c-15.5,0-24.6,3.2-27.9,9.7c-3.6,7.3,0.3,18.4,12.1,34C1303.8,303.8,1330.2,317.6,1353.4,329.7z"/><path d="M1121.9,491.4c2.6,0,4.8-1.1,6.6-3.4c2.6-3,63.5-74.1,61.9-103.9c-1.2-20.6,3.2-33.2,6.4-36.5c0.4-0.5,0.9-0.8,1.2-0.8   c0.5,0,0.7,1,0.7,1.4c0.7,6.5-1.4,88.4-30.4,123.7c-16.7,20.3-45.5,71.6-35.2,120.8c0.2,1.1,0.6,2.1,0.9,3.2   c-12.6,5.5-25.5,9.5-38.2,10.9c-0.9,0.2-20.6,6.4-9.7,59.4c1.6,7.7,2.5,14.2,3,19.9c-5.7,4.3-9.8,7.6-10.3,8l-2.1,1.7l2.5-1   c2.8-1.1,6.4-2,10.3-2.7c1.1,27.7-9.8,30.5-9.9,30.6l0.1,0.8c0.3,0,28.1-1.2,42-20.9c2.3-3.3,5.5-7.6,9.2-12.5   c23.5,0.9,44.9,4,45.2,4l0.8,0.1l-0.4-0.7c-0.1-0.2-12.4-21.9-24.8-32.3c4-6,7.8-11.9,10.8-17.4c8.6,7.9,18.8,15,30.9,21.2   c21,10.7,42.9,16.2,64.9,16.2c34.6,0,68.9-13.4,96.4-37.8c24.5-21.7,40.2-49.8,41.1-73.4c1.2-33-2.4-75-5.6-112.1   c-2.6-30.1-4.8-56.1-3.7-69c2.4-27.6-24.4-50.6-79.9-68.3c-21-6.7-30.7-19.6-40.1-32c-10.9-14.4-21.3-28.1-48.4-28.1   c-6.7,0-14.3,0.8-22.6,2.5c-7.9,1.6-15.2,2.9-21.6,4.1c-55.5,10.4-64,12-71.9,56.3c-3.5,19.7-9.8,37.1-15.3,52.5   c-8.5,23.5-15.2,42.1-9.1,58.5C1086.3,457.6,1107.9,491.4,1121.9,491.4z"/><path d="M1691.7,1499.9c-0.1-0.3-13.1-33.9-39.5-67.1c-15.5-19.5-32.5-35-50.6-46.1c-22.6-13.9-47-21-72.4-21c-1,0-1.9,0-2.8,0   c0,0-1,0-2.7,0c-12,0-73.7,1.2-106,24.6l-86.2,9.1c5.9-3.8,29-19.2,52.1-40.5c24.6-22.7,54.3-56.9,55.9-91   c2.9-65.3-11.3-78.3-11.9-78.8l-0.1-0.1l-0.2,0c-0.3,0-28.1,4.6-59.5,20.8c-29,15-66.9,43.3-83.3,92.9   c-0.2,0.6-20.2,62.4,10.9,101.5c-9.7,3.7-148.4,56.6-187.6,99.2c9.9-33.9,159.9-549.6,175.6-704.7c1.4,0.3,2.2,0.5,2.3,0.5l2.4,0.6   l-2.1-1.3c-0.1-0.1-1.1-0.7-2.5-1.5c0.4-4.2,0.8-8.3,1-12c4.2-1.9,64.4-29.8,66.7-73.4l0-0.4L1191.8,688l-0.5-0.1l0,0.5   c0.1,0.6,5.1,49.3,33.2,78.9c-32.7-13.9-73.9-27.2-112.2-27.2c-3.5,0-6.6,0.6-10,0.8c-1.2,0.1-2.4,0.2-3.6,0.3   c-11.6,1.1-22.7,3-32.4,6.7l-0.1,0.1c-1.3,1.2-31.5,29.6-29.8,42.4c0.7,5.3,20.1,21.3,45.6,21.3c13.3,0,25.9-4.4,37.2-13.2   c11.4-8.7,31.4-13.2,59.5-13.2c21,0,43.6,2.5,62.5,5.4c-4.7,44.2-25.8,231.1-61.7,358.6c-1.9,6.9-4,14.3-6.3,22.2l-172.6-237.8   c23.2-34.9-9.9-73.5-10.2-73.9l-0.3-0.3L906.3,941l-0.1,0.1v0.2c0.5,8.2,8.7,12.4,24.3,12.4c13.8,0,29.2-3.4,31.3-3.9l199.4,264.6   c-48.9,168.8-139,466.7-167.2,513.3l-0.1,0.1l5,37.9l0.1,1l0.6-0.8c0.2-0.2,19.6-25.4,40.5-64.4c19.2-35.9,43.6-91.3,50.6-151   l127-77.4c3.1,0.7,49.3,12,48.5,49.8c-0.4,18.9,12,44.6,30.8,63.7c19.3,19.7,43.3,30.6,67.6,30.6c12.3,0,24.7-2.7,37.1-8   c2.2,0.3,39.1,4.7,45.9,23l1.1,3.1l-0.4-3.2c0-0.4-4.7-42.2-24.2-83.5c-11.4-24.3-25.7-43.6-42.3-57.5c-2.3-1.9-4.7-3.3-7.1-4.9   c-0.4-0.2-0.7-0.5-1.1-0.7c-5.1-3.6-10.5-6.7-16.1-9.4c-0.6-0.3-1.2-0.6-1.8-0.8c-5.9-2.7-12-4.8-18.4-6.4   c-0.4-0.1-0.7-0.2-1.1-0.3c-8.9-2.1-18.1-3.6-27.8-3.6c-10.8,0-22.3,1.4-34,4c-0.1,0-4.9,0.2-11.3,0.2c-17.5,0-28.1-1.4-29.9-4   c-0.2-0.3-0.3-0.7-0.2-1c4.5-2.1,100.6-46.9,156.7-46.9c11.1,0,20,1.8,26.6,5.2c0.7,2,8.1,21.7,30.2,41.1   c21.4,18.8,61.2,41.2,129.8,41.2c7.6,0,15.5-0.3,23.5-0.8c0.4-0.1,36.6-7.1,64.8-7.1c12.1,0,21.1,1.3,26.6,3.9l0.9,0.4   L1691.7,1499.9z"/></g></svg>